HIERARCHY
ROOT Hips
{
	OFFSET 0.000000 0.000000 0.000000
	CHANNELS 6 Xposition Yposition Zposition Zrotation Yrotation Xrotation 
	JOINT LHipJoint
	{
		OFFSET 0.000000 0.000000 0.000000
		CHANNELS 3 Zrotation Yrotation Xrotation
		JOINT LeftUpLeg
		{
			OFFSET 1.363060 -1.794630 0.839290
			CHANNELS 3 Zrotation Yrotation Xrotation
			JOINT LeftLeg
			{
				OFFSET 2.448110 -6.726130 0.000000
				CHANNELS 3 Zrotation Yrotation Xrotation
				JOINT LeftFoot
				{
					OFFSET 2.562200 -7.039590 0.000000
					CHANNELS 3 Zrotation Yrotation Xrotation
					JOINT LeftToeBase
					{
						OFFSET 0.157640 -0.433110 2.322550
						CHANNELS 3 Zrotation Yrotation Xrotation
						End Site
						{
							OFFSET 0.000000 0.000000 0.000000
						}
					}
				}
			}
		}
	}
	JOINT RHipJoint
	{
		OFFSET 0.000000 0.000000 0.000000
		CHANNELS 3 Zrotation Yrotation Xrotation
		JOINT RightUpLeg
		{
			OFFSET -1.305520 -1.794630 0.839290
			CHANNELS 3 Zrotation Yrotation Xrotation
			JOINT RightLeg
			{
				OFFSET -2.542530 -6.985550 0.000000
				CHANNELS 3 Zrotation Yrotation Xrotation
				JOINT RightFoot
				{
					OFFSET -2.568260 -7.056230 0.000000
					CHANNELS 3 Zrotation Yrotation Xrotation
					JOINT RightToeBase
					{
						OFFSET -0.164730 -0.452590 2.363150
						CHANNELS 3 Zrotation Yrotation Xrotation
						End Site
						{
							OFFSET 0.000000 0.000000 0.000000
						}
					}
				}
			}
		}
	}
	JOINT LowerBack
	{
		OFFSET 0.000000 0.000000 0.000000
		CHANNELS 3 Zrotation Yrotation Xrotation
		JOINT Spine
		{
			OFFSET 0.028270 2.035590 -0.193380
			CHANNELS 3 Zrotation Yrotation Xrotation
			JOINT Spine1
			{
				OFFSET 0.056720 2.048850 -0.042750
				CHANNELS 3 Zrotation Yrotation Xrotation
				JOINT Neck
				{
					OFFSET 0.000000 0.000000 0.000000
					CHANNELS 3 Zrotation Yrotation Xrotation
					JOINT Neck1
					{
						OFFSET -0.054170 1.746240 0.172020
						CHANNELS 3 Zrotation Yrotation Xrotation
						JOINT Head
						{
							OFFSET 0.104070 1.761360 -0.123970
							CHANNELS 3 Zrotation Yrotation Xrotation
							End Site
							{
								OFFSET 0.000000 0.000000 0.000000
							}
						}
					}
				}
				JOINT LeftShoulder
				{
					OFFSET 0.000000 0.000000 0.000000
					CHANNELS 3 Zrotation Yrotation Xrotation
					JOINT LeftArm
					{
						OFFSET 3.362410 1.200890 -0.311210
						CHANNELS 3 Zrotation Yrotation Xrotation
						JOINT LeftForeArm
						{
							OFFSET 4.983000 -0.000000 -0.000000
							CHANNELS 3 Zrotation Yrotation Xrotation
							JOINT LeftHand
							{
								OFFSET 3.483560 -0.000000 -0.000000
								CHANNELS 3 Zrotation Yrotation Xrotation
								JOINT LeftFingerBase
								{
									OFFSET 0.000000 0.000000 0.000000
									CHANNELS 3 Zrotation Yrotation Xrotation
									JOINT LeftHandIndex1
									{
										OFFSET 0.715260 -0.000000 -0.000000
										CHANNELS 3 Zrotation Yrotation Xrotation
										End Site
										{
											OFFSET 0.000000 0.000000 0.000000
										}
									}
								}
								JOINT LThumb
								{
									OFFSET 0.000000 0.000000 0.000000
									CHANNELS 3 Zrotation Yrotation Xrotation
									End Site
									{
										OFFSET 0.000000 0.000000 0.000000
									}
								}
							}
						}
					}
				}
				JOINT RightShoulder
				{
					OFFSET 0.000000 0.000000 0.000000
					CHANNELS 3 Zrotation Yrotation Xrotation
					JOINT RightArm
					{
						OFFSET -3.136600 1.374050 -0.404650
						CHANNELS 3 Zrotation Yrotation Xrotation
						JOINT RightForeArm
						{
							OFFSET -5.241900 -0.000000 -0.000000
							CHANNELS 3 Zrotation Yrotation Xrotation
							JOINT RightHand
							{
								OFFSET -3.444170 -0.000000 -0.000000
								CHANNELS 3 Zrotation Yrotation Xrotation
								JOINT RightFingerBase
								{
									OFFSET 0.000000 0.000000 0.000000
									CHANNELS 3 Zrotation Yrotation Xrotation
									JOINT RightHandIndex1
									{
										OFFSET -0.622530 -0.000000 -0.000000
										CHANNELS 3 Zrotation Yrotation Xrotation
										End Site
										{
											OFFSET 0.000000 0.000000 0.000000
										}
									}
								}
								JOINT RThumb
								{
									OFFSET 0.000000 0.000000 0.000000
									CHANNELS 3 Zrotation Yrotation Xrotation
									End Site
									{
										OFFSET 0.000000 0.000000 0.000000
									}
								}
							}
						}
					}
				}
			}
		}
	}
}
MOTION
Frames: 10
Frame Time: 0.008333
3.297289 17.685596 0.173720 -106.904956 89.178128 -107.112693 0.545721 4.409478 2.877041 -15.497394 -0.965955 -1.385512 -0.041348 1.780594 8.952428 0.250415 -2.828736 -1.151908 0.097500 -2.013700 -5.543700 -3.614409 -6.629141 2.999275 21.579634 3.735815 -1.263263 0.202664 -3.430490 15.895357 -0.300089 -1.380059 -11.787720 -0.160400 2.580500 -7.112900 4.586034 -0.080405 2.415022 -0.562962 0.224093 3.485648 -2.784777 -0.149382 -5.368806 -5.816732 -5.335696 -5.497116 7.763596 -7.110793 2.589779 3.531200 -3.405900 1.209100 -4.253575 -0.195390 1.140109 -76.818057 5.173588 38.272406 13.422811 -25.738746 -2.963485 0.371903 0.890649 -38.550559 16.204194 8.100387 2.094100 -7.125000 0.000000 0.000000 -9.783300 37.743900 1.767800 4.425001 -0.457295 0.192905 80.281001 -8.655065 18.602243 -15.111681 28.771227 -3.691910 -0.044504 0.467891 19.333354 -8.034158 9.695037 -1.270100 7.125000 0.000000 0.000000 13.633100 -20.732800 8.154200 
3.298589 17.687595 0.174220 -112.166677 89.249662 -112.381260 0.457277 4.388913 2.883862 -15.489885 -0.953176 -1.276482 -0.056690 1.710268 8.752188 0.242197 -2.798823 -1.044100 0.084700 -1.877600 -5.167400 -3.703962 -6.651882 2.995998 21.566407 3.825410 -1.230689 0.193903 -3.449310 15.954029 -0.336492 -1.246524 -11.899221 -0.113100 2.168000 -5.970100 4.516462 -0.068100 2.387813 -0.578098 0.241781 3.512296 -2.795339 -0.141941 -5.327428 -5.879849 -5.359911 -5.513251 7.816431 -7.142713 2.591743 3.565400 -3.420600 1.220900 -4.268510 -0.197063 1.142190 -76.714849 5.125158 38.605139 13.487354 -25.809977 -2.979393 0.379582 0.876526 -38.728488 16.170499 7.904066 2.041200 -7.125000 0.000000 0.000000 -9.780800 37.560300 1.811900 4.452671 -0.464392 0.192771 80.199981 -8.896215 18.983175 -15.728981 29.547812 -3.940470 -0.063539 0.470945 18.591878 -8.239762 9.775069 -1.312900 7.125000 0.000000 0.000000 13.491700 -20.647400 8.091600 
3.300388 17.688495 0.173620 -121.499858 89.473031 -121.722720 0.293683 4.381530 2.910710 -15.575375 -0.899439 -1.130622 -0.079340 1.615779 8.468188 0.228153 -2.721938 -0.928731 0.089300 -1.927300 -5.304800 -3.867371 -6.666531 2.968723 21.473199 3.807340 -1.252680 0.178339 -3.472034 16.042740 -0.343570 -1.213288 -11.900705 -0.115800 2.193800 -6.041600 4.311749 -0.034111 2.376146 -0.624460 0.282731 3.513961 -2.807379 -0.117644 -5.321604 -5.892521 -5.385940 -5.457239 7.814116 -7.178670 2.579146 3.568100 -3.439800 1.209400 -4.283695 -0.189879 1.143560 -76.606794 5.138666 38.957744 13.601788 -25.948418 -3.015608 0.376341 0.877021 -38.761789 16.202841 7.994471 2.070100 -7.125000 0.000000 0.000000 -9.766700 37.653100 1.786800 4.483377 -0.465808 0.191649 80.139405 -9.228955 19.357690 -16.375884 30.350201 -4.206680 -0.090958 0.490929 18.059933 -8.787406 10.180452 -1.457300 7.125000 0.000000 0.000000 13.099100 -20.243200 7.965800 
3.300188 17.690494 0.172621 -141.286164 89.971297 -141.494638 -0.007056 4.515312 3.032693 -15.714163 -0.864055 -1.112094 -0.107661 1.565389 8.180434 0.213787 -2.595890 -0.839012 0.084800 -1.878500 -5.170000 -4.165693 -6.533648 2.831877 21.339300 3.802900 -1.210466 0.151452 -3.460956 16.154583 -0.352245 -1.178284 -11.896985 -0.119800 2.231600 -6.146200 3.924188 0.051976 2.399010 -0.694575 0.366133 3.494212 -2.793836 -0.033537 -5.348143 -5.920583 -5.403512 -5.450351 7.824430 -7.204783 2.626458 3.577300 -3.453100 1.230500 -4.298326 -0.145137 1.138010 -76.518669 5.165628 39.273424 13.769237 -26.152724 -3.074226 0.355028 0.894770 -38.841792 16.298682 8.399152 2.188100 -7.125000 0.000000 0.000000 -9.745600 38.046300 1.687700 4.517438 -0.431049 0.198474 80.066116 -9.527573 19.675923 -17.054591 31.179425 -4.500755 -0.085103 0.476482 17.843196 -8.365942 9.924984 -1.352000 7.125000 0.000000 0.000000 13.404000 -20.497600 8.082600 
3.299688 17.691893 0.171521 12.307052 89.314734 12.147029 0.009669 4.978443 3.247263 -15.912771 -0.883558 -1.311757 -0.129734 1.622604 8.056056 0.206470 -2.473979 -0.814021 0.071100 -1.719900 -4.732200 -4.141485 -6.055864 2.574716 21.162257 3.783211 -1.113543 0.117711 -3.399856 16.244208 -0.366418 -1.105801 -11.849474 -0.131200 2.335000 -6.432500 3.823383 0.265982 2.393148 -0.797946 0.573024 3.479054 -2.797668 0.176036 -5.342336 -5.938174 -5.420380 -5.455407 7.867427 -7.230303 2.649758 3.596100 -3.465400 1.242600 -4.317616 -0.035703 1.119040 -76.369753 5.158814 39.703346 13.939097 -26.353589 -3.129965 0.337000 0.890531 -39.039760 16.219344 8.579569 2.226200 -7.125000 0.000000 0.000000 -9.830000 38.220600 1.660200 4.555249 -0.334928 0.221325 79.986933 -9.786559 20.000154 -17.842746 32.124369 -4.856419 -0.058313 0.441636 17.675032 -7.300949 9.270503 -1.101800 7.125000 0.000000 0.000000 14.176200 -21.145700 8.362500 
3.301387 17.690994 0.171821 -7.745500 88.965668 -7.876492 0.387758 5.249948 3.299290 -16.016608 -0.899903 -1.451550 -0.123574 1.696992 8.188129 0.213236 -2.506724 -0.863321 0.066300 -1.661400 -4.570900 -3.759306 -5.771874 2.504210 21.068981 3.802724 -1.094954 0.111919 -3.380852 16.251571 -0.363906 -1.122412 -11.833681 -0.143000 2.437100 -6.715200 4.111661 0.381096 2.357761 -0.836518 0.687724 3.482898 -2.786315 0.282350 -5.309582 -5.945951 -5.423437 -5.491873 7.892142 -7.236144 2.690545 3.605200 -3.467000 1.265500 -4.345489 0.018359 1.112829 -76.215621 5.146257 40.156752 14.138764 -26.589434 -3.195478 0.328091 0.881366 -39.193150 16.154834 8.653599 2.239300 -7.125000 0.000000 0.000000 -9.888300 38.296100 1.651700 4.595309 -0.294064 0.229854 79.796031 -10.142789 20.726148 -18.774959 33.210386 -5.283329 -0.058237 0.427194 17.388686 -6.918845 8.901350 -1.001500 7.125000 0.000000 0.000000 14.471700 -21.503000 8.426700 
3.302387 17.686296 0.172221 -17.158196 88.921399 -17.272719 0.585683 5.282503 3.276102 -16.035452 -0.943335 -1.533095 -0.109591 1.753314 8.369900 0.222378 -2.564975 -0.944751 0.072100 -1.732900 -4.767900 -3.559287 -5.734189 2.526793 21.053860 3.752942 -1.143724 0.117648 -3.383166 16.227634 -0.353388 -1.176993 -11.833514 -0.164800 2.615400 -7.209800 4.264316 0.398807 2.309290 -0.833381 0.705016 3.488799 -2.753140 0.293069 -5.275984 -5.968670 -5.436142 -5.536439 7.896457 -7.254777 2.765075 3.609500 -3.475200 1.305800 -4.375247 0.025245 1.117698 -76.076470 5.080900 40.598013 14.364170 -26.853291 -3.272236 0.307683 0.877968 -39.214341 16.050148 8.930783 2.298000 -7.125000 0.000000 0.000000 -10.009100 38.562100 1.606200 4.642055 -0.300096 0.225517 79.478598 -10.554998 21.709148 -19.839216 34.414812 -5.785496 -0.069961 0.428199 16.986769 -6.833128 8.800498 -0.975800 7.125000 0.000000 0.000000 14.547200 -21.602200 8.439700 
3.301587 17.679599 0.172021 -7.645997 88.949170 -7.729526 0.383555 5.240032 3.298861 -16.011887 -0.964868 -1.691309 -0.097865 1.828870 8.544377 0.234281 -2.623299 -1.017291 0.066700 -1.666800 -4.585600 -3.759911 -5.771854 2.501289 21.101680 3.703676 -1.151836 0.120178 -3.361790 16.199152 -0.336360 -1.238715 -11.779639 -0.194500 2.840100 -7.833900 4.102719 0.410521 2.251711 -0.842795 0.719521 3.491037 -2.755116 0.300132 -5.239489 -5.977722 -5.437152 -5.585130 7.882151 -7.256417 2.839366 3.605400 -3.475300 1.344000 -4.407357 0.033119 1.125589 -75.877861 5.043643 41.230973 14.707001 -27.254320 -3.389191 0.297213 0.866076 -39.363160 15.982377 9.059583 2.325400 -7.125000 0.000000 0.000000 -10.078300 38.694000 1.584500 4.693001 -0.309811 0.221051 79.191304 -10.859762 22.493668 -20.925292 35.604832 -6.318986 -0.075870 0.434288 16.881516 -6.665653 8.813917 -0.951000 7.125000 0.000000 0.000000 14.669600 -21.597300 8.517200 
3.301487 17.682897 0.171222 13.419695 89.316662 13.381502 -0.011850 4.933647 3.235752 -15.921532 -1.045702 -1.854762 -0.070231 1.917887 8.865593 0.251543 -2.723197 -1.140497 0.066400 -1.663000 -4.575300 -4.154159 -6.073433 2.581865 21.194192 3.752552 -1.185135 0.140733 -3.356065 16.107486 -0.334697 -1.252485 -11.812785 -0.167300 2.635300 -7.265000 3.837570 0.316991 2.150006 -0.844612 0.633316 3.501632 -2.800715 0.204744 -5.181053 -6.001549 -5.443533 -5.621951 7.924400 -7.264696 2.879402 3.631700 -3.477500 1.372600 -4.448486 -0.008378 1.148277 -75.587104 5.002938 42.004114 15.170682 -27.794728 -3.552300 0.292139 0.853235 -39.636097 16.008370 9.150883 2.358500 -7.125000 0.000000 0.000000 -10.066200 38.800400 1.555900 4.745324 -0.372213 0.204899 78.969542 -11.101354 23.104757 -22.101350 36.845310 -6.917994 -0.080484 0.440388 16.994132 -6.465137 8.800872 -0.918500 7.125000 0.000000 0.000000 14.817800 -21.618500 8.601900 
3.301887 17.685996 0.172221 22.051535 89.568134 22.044569 -0.083968 4.757232 3.168624 -15.851773 -1.119047 -1.953107 -0.046049 1.985697 9.134000 0.263559 -2.797407 -1.245389 0.071100 -1.719700 -4.731600 -4.225666 -6.244895 2.663496 21.254917 3.826262 -1.203341 0.161242 -3.353898 16.018389 -0.337889 -1.260577 -11.876787 -0.141400 2.423500 -6.677600 3.821854 0.248787 2.074508 -0.822332 0.565921 3.512221 -2.792426 0.135997 -5.137532 -6.063545 -5.448454 -5.625513 7.955716 -7.271246 2.903189 3.658800 -3.480300 1.388200 -4.488458 -0.034226 1.166871 -75.365796 4.919353 42.657817 15.608881 -28.299010 -3.711380 0.288481 0.854516 -39.762824 16.152514 9.343305 2.434000 -7.125000 0.000000 0.000000 -9.977500 39.005900 1.490900 4.801021 -0.420270 0.192926 78.586946 -11.345592 24.061066 -23.394019 38.157407 -7.597915 -0.095947 0.444828 16.777887 -6.415745 8.652430 -0.893000 7.125000 0.000000 0.000000 14.876700 -21.764400 8.587100 
